<svg data-v-423bf9ae="" xmlns="http://www.w3.org/2000/svg" viewBox="0 0 428 90" class="iconLeftSlogan"><g data-v-423bf9ae="" id="361ec148-a9de-4cc7-868d-11bf98de1b97" fill="white" transform="matrix(4.545454611134596,0,0,4.545454611134596,114.55987687536165,-13.818181367616681)"><path d="M2.74 7.46L2.73 11.85Q2.84 11.96 2.98 12.08Q3.12 12.20 3.30 12.30L3.30 12.30Q3.67 12.51 4.00 12.51L4.00 12.51Q4.07 12.51 4.15 12.49Q4.22 12.48 4.31 12.44L4.31 12.44L4.30 12.44Q5.48 11.96 5.48 9.67L5.48 9.67Q5.48 7.59 4.51 6.90L4.51 6.90L4.52 6.90Q4.32 6.77 4.12 6.77L4.12 6.77Q3.79 6.77 3.45 6.94Q3.11 7.12 2.74 7.46L2.74 7.46ZM2.73 13.01L0.46 13.01L0.46 12.35L1.16 12.35L1.16 3.70L0.46 3.70L0.46 3.04L2.75 3.04L2.74 6.53Q3.06 6.33 3.44 6.22Q3.83 6.11 4.28 6.11L4.28 6.11Q7.08 6.11 7.08 9.64L7.08 9.64Q7.08 13.15 4.20 13.15L4.20 13.15Q3.77 13.15 3.40 13.05Q3.04 12.95 2.73 12.74L2.73 12.74L2.73 13.01ZM10.17 12.52L10.17 12.52Q10.68 12.52 11.26 11.98L11.26 11.98Q11.52 11.74 11.71 11.48Q11.90 11.22 12.00 10.94L12.00 10.94L12.00 9.41Q11.81 9.49 11.55 9.58Q11.29 9.67 10.94 9.76L10.94 9.76L10.94 9.76Q10.56 9.88 10.30 9.99Q10.04 10.10 9.88 10.23L9.88 10.23L9.88 10.22Q9.44 10.58 9.44 11.31L9.44 11.31Q9.44 11.80 9.60 12.13L9.60 12.13Q9.80 12.52 10.17 12.52ZM8.43 8.16L8.43 6.48Q9.24 6.29 9.78 6.19Q10.32 6.09 10.60 6.09L10.60 6.09Q12.15 6.09 12.80 6.57L12.80 6.57Q13.58 7.16 13.58 8.68L13.58 8.68L13.58 11.56Q13.58 12.35 13.60 12.35L13.60 12.35L14.39 12.35L14.39 13.01L12.28 13.01Q12.07 12.67 12.01 12.15L12.01 12.15Q11.85 12.34 11.65 12.51Q11.44 12.68 11.22 12.81L11.22 12.81Q10.56 13.17 9.83 13.17L9.83 13.17Q8.96 13.17 8.42 12.73L8.42 12.73Q7.85 12.24 7.85 11.36L7.85 11.36Q7.85 10.23 8.72 9.76L8.72 9.76Q9.14 9.54 10.48 9.27L10.48 9.27Q11.56 9.06 11.95 8.69L11.95 8.69Q11.96 8.62 11.98 8.53Q11.99 8.45 11.99 8.35L11.99 8.35Q11.99 6.75 10.32 6.75L10.32 6.75Q9.23 6.75 9.08 8.16L9.08 8.16L8.43 8.16ZM20.06 8.20L20.06 7.83Q19.76 7.28 19.40 7.01Q19.04 6.75 18.61 6.75L18.61 6.75Q17.65 6.75 17.19 7.73L17.19 7.73Q16.84 8.48 16.84 9.67L16.84 9.67Q16.84 10.14 16.94 10.60Q17.04 11.05 17.21 11.45L17.21 11.45Q17.67 12.45 18.44 12.45L18.44 12.45Q19.71 12.45 20.30 10.99L20.30 10.99L20.84 11.34Q20.75 11.76 20.47 12.12Q20.20 12.48 19.82 12.71L19.82 12.71Q19.47 12.93 19.07 13.05Q18.67 13.17 18.27 13.17L18.27 13.17Q17.46 13.17 16.86 12.90Q16.26 12.63 15.89 12.15L15.89 12.15Q15.58 11.71 15.42 11.07Q15.26 10.42 15.26 9.59L15.26 9.59Q15.26 6.10 18.27 6.10L18.27 6.10Q18.53 6.10 19.10 6.26L19.10 6.26Q19.61 6.40 19.87 6.40L19.87 6.40Q20.04 6.40 20.13 6.27L20.13 6.27L20.73 6.27L20.73 8.20L20.06 8.20ZM23.40 9.67L23.40 9.67Q23.40 10.78 23.71 11.51L23.71 11.51Q24.12 12.50 25.00 12.50L25.00 12.50Q25.43 12.50 25.75 12.24Q26.08 11.99 26.28 11.52L26.28 11.52Q26.43 11.15 26.52 10.68Q26.60 10.22 26.60 9.69L26.60 9.69Q26.60 8.58 26.28 7.81L26.28 7.81Q25.86 6.77 25.01 6.77L25.01 6.77Q24.56 6.77 24.24 7.04Q23.91 7.31 23.71 7.78L23.71 7.78Q23.57 8.15 23.48 8.63Q23.40 9.12 23.40 9.67ZM28.18 9.64L28.18 9.64Q28.18 11.51 27.38 12.34L27.38 12.34Q26.58 13.15 24.73 13.15L24.73 13.15Q21.81 13.15 21.81 9.64L21.81 9.64Q21.81 6.11 25.16 6.11L25.16 6.11Q28.18 6.11 28.18 9.64ZM31.43 7.43L31.44 11.82Q32.18 12.50 32.82 12.50L32.82 12.50Q33.01 12.50 33.21 12.37L33.21 12.37Q34.18 11.68 34.18 9.60L34.18 9.60Q34.18 7.32 33.00 6.83L33.00 6.83L33.00 6.83Q32.92 6.79 32.84 6.78Q32.77 6.76 32.70 6.76L32.70 6.76Q32.38 6.76 32.00 6.98L32.00 6.98Q31.64 7.18 31.43 7.43L31.43 7.43ZM29.16 16.24L29.16 15.58L29.86 15.58L29.86 6.93L29.16 6.93L29.16 6.27L31.43 6.27L31.43 6.53Q32.04 6.13 32.90 6.13L32.90 6.13Q35.77 6.13 35.77 9.64L35.77 9.64Q35.77 13.16 32.98 13.16L32.98 13.16Q32.05 13.16 31.44 12.75L31.44 12.75Q31.44 13.48 31.44 14.16Q31.45 14.84 31.45 15.58L31.45 15.58L32.12 15.58L32.12 16.24L29.16 16.24ZM36.81 6.53L38.58 6.53L38.58 12.61L39.25 12.61L39.25 12.74L36.81 12.74L36.81 12.61L37.52 12.61L37.52 6.67L36.81 6.67L36.81 6.53ZM37.15 4.03L37.15 4.03Q37.15 3.84 37.22 3.68Q37.29 3.51 37.41 3.39Q37.53 3.27 37.69 3.20Q37.86 3.12 38.04 3.12L38.04 3.12Q38.23 3.12 38.39 3.20Q38.55 3.27 38.67 3.39Q38.79 3.51 38.87 3.68Q38.94 3.84 38.94 4.03L38.94 4.03Q38.94 4.21 38.87 4.38Q38.79 4.54 38.67 4.66Q38.55 4.78 38.39 4.85Q38.23 4.92 38.04 4.92L38.04 4.92Q37.86 4.92 37.69 4.85Q37.53 4.78 37.41 4.66Q37.29 4.54 37.22 4.38Q37.15 4.21 37.15 4.03ZM40.35 13.01L40.35 12.35L41.04 12.35L41.04 3.70L40.35 3.70L40.35 3.04L42.64 3.04L42.64 12.35L43.33 12.35L43.33 13.01L40.35 13.01ZM45.68 9.67L45.68 9.67Q45.68 10.78 45.99 11.51L45.99 11.51Q46.40 12.50 47.28 12.50L47.28 12.50Q47.71 12.50 48.03 12.24Q48.36 11.99 48.56 11.52L48.56 11.52Q48.71 11.15 48.79 10.68Q48.88 10.22 48.88 9.69L48.88 9.69Q48.88 8.58 48.56 7.81L48.56 7.81Q48.14 6.77 47.28 6.77L47.28 6.77Q46.84 6.77 46.52 7.04Q46.19 7.31 45.99 7.78L45.99 7.78Q45.85 8.15 45.76 8.63Q45.68 9.12 45.68 9.67ZM50.46 9.64L50.46 9.64Q50.46 11.51 49.66 12.34L49.66 12.34Q48.86 13.15 47.01 13.15L47.01 13.15Q44.08 13.15 44.08 9.64L44.08 9.64Q44.08 6.11 47.44 6.11L47.44 6.11Q50.46 6.11 50.46 9.64ZM55.06 6.27L55.06 6.93L53.89 6.93L53.89 11.39Q53.89 11.99 54.11 12.15L54.11 12.15Q54.28 12.29 55.06 12.35L55.06 12.35L55.06 13.02Q54.40 13.00 53.96 12.95Q53.51 12.91 53.29 12.84L53.29 12.84Q52.31 12.53 52.31 11.55L52.31 11.55L52.31 6.93L51.27 6.93L51.27 6.27Q52.10 6.27 52.68 5.61L52.68 5.61Q52.94 5.33 53.13 4.97Q53.32 4.61 53.46 4.16L53.46 4.16L53.89 4.16L53.89 6.27L55.06 6.27ZM55.85 12.22L55.85 12.22Q55.85 12.03 55.92 11.87Q55.99 11.70 56.11 11.58Q56.23 11.46 56.40 11.39Q56.56 11.32 56.75 11.32L56.75 11.32Q56.93 11.32 57.09 11.39Q57.26 11.46 57.38 11.58Q57.50 11.70 57.57 11.87Q57.64 12.03 57.64 12.22L57.64 12.22Q57.64 12.40 57.57 12.56Q57.50 12.73 57.38 12.85Q57.26 12.97 57.09 13.05Q56.93 13.12 56.75 13.12L56.75 13.12Q56.56 13.12 56.40 13.05Q56.23 12.97 56.11 12.85Q55.99 12.73 55.92 12.56Q55.85 12.40 55.85 12.22ZM60.96 12.52L60.96 12.52Q61.47 12.52 62.04 11.98L62.04 11.98Q62.30 11.74 62.49 11.48Q62.69 11.22 62.78 10.94L62.78 10.94L62.78 9.41Q62.60 9.49 62.33 9.58Q62.07 9.67 61.72 9.76L61.72 9.76L61.73 9.76Q61.35 9.88 61.08 9.99Q60.82 10.10 60.66 10.23L60.66 10.23L60.66 10.22Q60.22 10.58 60.22 11.31L60.22 11.31Q60.22 11.80 60.39 12.13L60.39 12.13Q60.58 12.52 60.96 12.52ZM59.21 8.16L59.21 6.48Q60.03 6.29 60.57 6.19Q61.11 6.09 61.38 6.09L61.38 6.09Q62.93 6.09 63.59 6.57L63.59 6.57Q64.36 7.16 64.36 8.68L64.36 8.68L64.36 11.56Q64.36 12.35 64.38 12.35L64.38 12.35L65.17 12.35L65.17 13.01L63.07 13.01Q62.85 12.67 62.79 12.15L62.79 12.15Q62.64 12.34 62.43 12.51Q62.23 12.68 62.00 12.81L62.00 12.81Q61.35 13.17 60.61 13.17L60.61 13.17Q59.74 13.17 59.20 12.73L59.20 12.73Q58.63 12.24 58.63 11.36L58.63 11.36Q58.63 10.23 59.51 9.76L59.51 9.76Q59.92 9.54 61.26 9.27L61.26 9.27Q62.34 9.06 62.73 8.69L62.73 8.69Q62.75 8.62 62.76 8.53Q62.77 8.45 62.77 8.35L62.77 8.35Q62.77 6.75 61.10 6.75L61.10 6.75Q60.01 6.75 59.86 8.16L59.86 8.16L59.21 8.16ZM66.32 6.53L68.09 6.53L68.09 12.61L68.76 12.61L68.76 12.74L66.32 12.74L66.32 12.61L67.03 12.61L67.03 6.67L66.32 6.67L66.32 6.53ZM66.66 4.03L66.66 4.03Q66.66 3.84 66.73 3.68Q66.80 3.51 66.92 3.39Q67.04 3.27 67.20 3.20Q67.37 3.12 67.55 3.12L67.55 3.12Q67.74 3.12 67.90 3.20Q68.07 3.27 68.19 3.39Q68.30 3.51 68.38 3.68Q68.45 3.84 68.45 4.03L68.45 4.03Q68.45 4.21 68.38 4.38Q68.30 4.54 68.19 4.66Q68.07 4.78 67.90 4.85Q67.74 4.92 67.55 4.92L67.55 4.92Q67.37 4.92 67.20 4.85Q67.04 4.78 66.92 4.66Q66.80 4.54 66.73 4.38Q66.66 4.21 66.66 4.03Z"></path></g><g data-v-423bf9ae="" id="51d07a56-a5b8-416d-84a0-9069ced972cf" transform="matrix(3.02033690133878,0,0,3.02033690133878,0.6746095785795205,-6.44676146975133)" stroke="none" fill="white"><path d="M.172 2.201H13.74v13.568H.172zM18.432 2.201H32v13.568H18.432z"></path></g><g data-v-423bf9ae="" id="3b9b7073-6083-477d-8d05-316216e85eff" fill="white" transform="matrix(0.8620744386949352,0,0,0.8620744386949352,116.53871099863603,59.63792770393642)"><path d="M2.32 0.70L0.13 0.70L0.13 0.78L3.89 6.45L3.89 10.50L5.74 10.50L5.74 6.45L9.65 0.78L9.65 0.70L7.42 0.70L4.82 4.75ZM22.06 0.50C18.68 0.50 17.02 3.09 17.02 5.67C17.02 8.25 18.62 10.72 22.06 10.72C25.51 10.72 27.06 8.19 27.09 5.66C27.12 3.09 25.44 0.50 22.06 0.50ZM22.06 2.18C24.37 2.18 25.30 4.03 25.27 5.68C25.24 7.29 24.37 9.03 22.06 9.03C19.75 9.03 18.89 7.31 18.84 5.70C18.80 4.05 19.75 2.18 22.06 2.18ZM42.21 0.71L42.21 6.33C42.21 8.01 41.34 9.03 39.82 9.03C38.29 9.03 37.28 8.09 37.28 6.33L37.28 0.71L35.45 0.71L35.45 6.33C35.45 9.28 37.45 10.71 39.80 10.71C42.27 10.71 44.04 9.23 44.04 6.33L44.04 0.71ZM61.54 10.37L58.58 7.03C60.44 6.65 61.05 5.29 61.05 3.95C61.05 2.25 59.84 0.71 57.53 0.70C55.97 0.70 54.42 0.69 52.86 0.69L52.86 10.50L54.71 10.50L54.71 7.22L56.49 7.22L59.35 10.50L61.54 10.50ZM57.53 2.42C58.69 2.42 59.21 3.21 59.21 3.99C59.21 4.77 58.70 5.56 57.53 5.56L54.71 5.56L54.71 2.42ZM87.56 1.92C86.55 0.92 85.23 0.42 83.92 0.42C80.46 0.42 78.74 2.97 78.74 5.73C78.74 8.30 80.23 10.72 83.92 10.72C85.64 10.72 86.86 10.07 87.82 8.96L87.82 4.83L83.62 4.83L83.62 6.48L86.13 6.48L86.13 8.22C85.36 8.83 84.69 9.00 83.92 9.00C81.48 9.00 80.54 7.34 80.54 5.73C80.54 3.71 81.82 2.11 83.92 2.11C84.77 2.11 85.75 2.46 86.41 3.09ZM103.64 8.68L98.14 8.68L98.14 6.47L103.45 6.47L103.45 4.75L98.14 4.75L98.14 2.49L103.64 2.49L103.64 0.70L96.31 0.70C96.31 3.96 96.31 7.24 96.31 10.50L103.64 10.50ZM118.80 6.78L114.00 0.70L112.50 0.70L112.50 10.50L114.35 10.50L114.35 3.89L119.50 10.51L119.50 10.50L120.65 10.50L120.65 0.69L118.80 0.69ZM137.13 10.50L139.15 10.50L134.75 0.70L132.73 0.70L128.34 10.50L130.34 10.50L131.18 8.65L136.30 8.65ZM135.56 6.93L131.92 6.93L133.74 2.76ZM148.68 10.50L148.68 0.70L146.85 0.70L146.85 10.50ZM174.62 7.99C173.98 8.64 173.01 8.99 172.16 8.99C169.74 8.99 168.80 7.29 168.78 5.67C168.77 4.03 169.79 2.27 172.16 2.27C173.01 2.27 173.88 2.56 174.52 3.19L175.76 2.00C174.75 1.01 173.49 0.50 172.16 0.50C168.62 0.50 166.95 3.11 166.96 5.67C166.98 8.22 168.52 10.72 172.16 10.72C173.57 10.72 174.87 10.26 175.88 9.27ZM188.52 0.50C185.14 0.50 183.48 3.09 183.48 5.67C183.48 8.25 185.08 10.72 188.52 10.72C191.97 10.72 193.52 8.19 193.55 5.66C193.58 3.09 191.90 0.50 188.52 0.50ZM188.52 2.18C190.83 2.18 191.76 4.03 191.73 5.68C191.70 7.29 190.83 9.03 188.52 9.03C186.21 9.03 185.35 7.31 185.30 5.70C185.26 4.05 186.21 2.18 188.52 2.18ZM203.76 2.45L206.53 2.45C208.88 2.45 208.89 5.92 206.53 5.92L203.76 5.92ZM206.53 0.69C204.99 0.69 203.45 0.70 201.91 0.70L201.91 10.50L203.76 10.50L203.76 7.62L206.53 7.62C211.33 7.62 211.32 0.69 206.53 0.69ZM220.22 10.50L220.22 0.70L218.39 0.70L218.39 10.50ZM228.96 0.70L228.96 10.50L235.84 10.50L235.84 8.79L230.80 8.79L230.80 0.70ZM248.46 0.50C245.07 0.50 243.42 3.09 243.42 5.67C243.42 8.25 245.01 10.72 248.46 10.72C251.90 10.72 253.46 8.19 253.48 5.66C253.51 3.09 251.83 0.50 248.46 0.50ZM248.46 2.18C250.77 2.18 251.69 4.03 251.66 5.68C251.64 7.29 250.77 9.03 248.46 9.03C246.15 9.03 245.28 7.31 245.24 5.70C245.20 4.05 246.15 2.18 248.46 2.18ZM263.80 10.50L265.65 10.50L265.65 2.38L268.76 2.38L268.76 0.70C265.92 0.70 263.52 0.70 260.69 0.70L260.69 2.38L263.80 2.38ZM275.83 9.62C275.83 10.95 277.84 10.95 277.84 9.62C277.84 8.29 275.83 8.29 275.83 9.62ZM286.22 9.62C286.22 10.95 288.23 10.95 288.23 9.62C288.23 8.29 286.22 8.29 286.22 9.62Z"></path></g></svg>